<?xml version="1.0" standalone="no"?>
<!DOCTYPE svg PUBLIC "-//W3C//DTD SVG 20010904//EN"
 "http://www.w3.org/TR/2001/REC-SVG-20010904/DTD/svg10.dtd">
<svg version="1.0" xmlns="http://www.w3.org/2000/svg"
 width="831.000000pt" height="157.000000pt" viewBox="0 0 831.000000 157.000000"
 preserveAspectRatio="xMidYMid meet">

<g transform="translate(0.000000,157.000000) scale(0.100000,-0.100000)"
fill="#000000" stroke="none">
<path d="M3975 1264 c-66 -7 -128 -13 -137 -13 -17 -1 -18 -26 -18 -388 0
-365 1 -389 20 -428 31 -63 65 -78 197 -83 99 -4 113 -3 113 12 0 9 -8 16 -18
16 -18 0 -19 19 -26 364 -4 200 -4 402 0 450 4 49 3 85 -2 85 -5 -1 -63 -7
-129 -15z"/>
<path d="M6295 1264 c-66 -7 -128 -13 -137 -13 -17 -1 -18 -26 -18 -388 0
-365 1 -389 20 -428 31 -63 65 -78 197 -83 99 -4 113 -3 113 12 0 9 -8 16 -18
16 -18 0 -19 19 -26 364 -4 200 -4 402 0 450 4 49 3 85 -2 85 -5 -1 -63 -7
-129 -15z"/>
<path d="M261 1223 c-6 -27 -54 -232 -106 -456 -52 -224 -95 -410 -95 -413 0
-2 66 -3 148 -2 l147 3 19 88 20 87 128 0 128 0 6 -27 c3 -16 10 -44 14 -63 4
-19 11 -47 14 -62 l6 -28 151 0 c138 0 150 1 145 18 -7 24 -170 719 -193 820
l-18 82 -251 0 -252 0 -11 -47z m286 -157 c6 -54 23 -156 37 -227 14 -71 26
-136 26 -144 0 -12 -17 -15 -91 -15 l-91 0 5 28 c5 22 50 289 73 430 10 61 28
28 41 -72z"/>
<path d="M4250 811 l0 -461 147 0 146 0 -7 165 c-4 91 -9 172 -13 180 -3 9 1
15 10 15 9 0 20 -15 26 -33 27 -80 105 -113 249 -105 167 10 243 72 271 223
33 180 -10 343 -107 408 -85 55 -114 60 -429 65 l-293 4 0 -461z m475 245 c50
-21 69 -65 69 -157 0 -57 -5 -84 -20 -110 l-20 -34 -90 -3 c-126 -4 -127 -3
-132 179 l-4 139 81 0 c48 0 96 -6 116 -14z"/>
<path d="M1528 1157 c-77 -22 -139 -79 -173 -161 -25 -59 -39 -45 -31 29 4 36
9 79 13 95 l6 30 -147 0 -146 0 0 -400 0 -400 146 0 146 0 -7 263 c-8 289 -7
294 48 327 67 41 135 17 164 -57 16 -42 18 -77 17 -290 l-2 -243 144 0 144 0
0 238 c0 302 -10 399 -47 472 -21 40 -40 61 -69 77 -52 29 -143 37 -206 20z"/>
<path d="M2197 1160 c-69 -12 -152 -55 -186 -97 -39 -47 -55 -109 -49 -191 8
-108 59 -184 143 -212 19 -6 35 -15 35 -18 0 -4 -11 -26 -24 -49 -23 -41 -24
-44 -7 -64 16 -20 20 -21 126 -10 172 17 208 15 239 -14 23 -22 27 -32 24 -73
l-3 -47 -65 -3 c-87 -4 -133 11 -180 59 l-39 40 -123 -26 c-68 -15 -126 -30
-130 -34 -12 -11 31 -94 70 -134 74 -77 195 -117 357 -117 204 0 365 69 411
177 22 52 18 144 -9 183 -54 81 -146 94 -437 62 -96 -11 -177 -18 -179 -16 -2
2 2 15 9 29 12 23 19 25 87 25 200 0 343 83 360 209 7 48 4 47 123 26 47 -8
86 -15 88 -15 1 0 2 70 2 156 l0 157 -50 -5 c-85 -8 -149 -77 -166 -180 -11
-66 -15 -78 -24 -78 -6 0 -10 14 -10 31 0 92 -66 182 -156 213 -60 20 -172 28
-237 16z m154 -179 c26 -27 29 -36 29 -98 0 -40 -5 -74 -12 -81 -15 -15 -89
-15 -123 0 -37 17 -55 57 -55 122 0 70 15 86 81 86 42 0 55 -5 80 -29z"/>
<path d="M3215 1159 c-87 -12 -181 -63 -225 -122 -62 -81 -75 -133 -75 -287 1
-118 4 -142 24 -194 30 -75 96 -147 161 -175 150 -65 380 -44 496 44 43 33 92
135 100 208 l7 57 -121 0 c-66 0 -127 2 -135 6 -11 4 -16 -10 -21 -64 -8 -77
-12 -82 -89 -82 -78 0 -127 52 -142 151 l-7 46 59 6 c32 3 147 14 257 24 l199
18 -6 68 c-7 76 -43 166 -85 210 -75 79 -222 111 -397 86z m160 -221 c27 -24
59 -98 47 -110 -4 -3 -58 -10 -119 -13 -128 -9 -119 -15 -107 79 8 55 22 64
101 65 40 1 58 -4 78 -21z"/>
<path d="M6820 1160 c-83 -14 -128 -30 -176 -63 -65 -43 -94 -95 -94 -170 0
-77 22 -122 74 -151 53 -31 75 -35 234 -50 170 -16 187 -26 187 -112 l0 -59
-92 0 c-83 0 -94 2 -117 24 -14 13 -28 37 -32 53 -6 30 -6 30 -63 24 -31 -3
-89 -8 -128 -12 -83 -8 -85 -10 -58 -100 19 -66 73 -127 140 -159 150 -71 415
-48 529 47 70 57 95 155 58 227 -35 69 -104 95 -281 107 -168 10 -185 24 -179
135 l3 54 55 3 c106 6 164 -30 177 -110 6 -38 7 -39 37 -34 17 3 67 8 111 11
119 10 118 10 111 59 -19 120 -77 207 -166 245 -81 35 -227 49 -330 31z"/>
<path d="M7700 1161 c-168 -32 -248 -95 -297 -235 -27 -78 -25 -280 5 -360 57
-155 167 -221 372 -220 189 1 292 50 349 166 17 35 34 89 39 121 l9 57 -123 0
c-67 0 -129 2 -137 6 -11 4 -15 -9 -19 -61 -3 -36 -9 -69 -12 -72 -3 -4 -30
-8 -59 -11 -72 -6 -113 16 -137 71 -26 61 -34 116 -18 122 7 3 123 15 258 28
l245 23 -3 44 c-1 25 -12 76 -23 114 -27 91 -98 166 -180 190 -65 20 -207 28
-269 17z m148 -226 c26 -22 46 -64 47 -100 0 -10 -224 -35 -230 -25 -2 3 -1
34 2 69 7 72 15 79 100 80 41 1 58 -4 81 -24z"/>
<path d="M5200 871 c0 -153 5 -302 10 -332 24 -124 77 -184 182 -201 122 -21
239 41 291 153 12 27 28 49 34 49 16 0 16 5 -1 -102 l-13 -88 146 0 146 0 0
400 0 400 -145 0 -145 0 3 -271 c3 -251 2 -272 -15 -291 -42 -47 -110 -61
-151 -32 -53 37 -57 59 -60 337 l-3 257 -140 0 -139 0 0 -279z"/>
</g>
</svg>
