<?xml version="1.0" standalone="no"?>
<!DOCTYPE svg PUBLIC "-//W3C//DTD SVG 20010904//EN"
 "http://www.w3.org/TR/2001/REC-SVG-20010904/DTD/svg10.dtd">
<svg version="1.0" xmlns="http://www.w3.org/2000/svg"
 width="977.000000pt" height="190.000000pt" viewBox="0 0 977.000000 190.000000"
 preserveAspectRatio="xMidYMid meet">

<g transform="translate(0.000000,190.000000) scale(0.100000,-0.100000)"
fill="#000000" stroke="none">
<path d="M3735 1499 c-93 -9 -171 -17 -172 -18 -2 0 -3 -248 -3 -551 l0 -550
175 0 175 0 0 339 0 339 30 25 c68 58 149 59 198 3 46 -53 54 -126 50 -439
l-3 -267 179 0 178 0 -5 363 c-4 297 -8 373 -21 422 -37 130 -95 188 -209 207
-160 26 -306 -51 -374 -198 -41 -89 -52 -70 -33 54 6 37 9 117 8 177 l-3 110
-170 -16z"/>
<path d="M9375 1500 c-93 -10 -171 -18 -172 -19 -2 -1 -2 -208 -2 -461 0 -514
2 -534 63 -588 21 -18 55 -34 86 -41 54 -12 218 -15 244 -5 25 10 19 34 -8 34
l-24 0 -7 333 c-4 182 -6 430 -4 550 2 119 2 216 -1 216 -3 -1 -81 -10 -175
-19z"/>
<path d="M490 1504 c0 -18 -239 -1050 -256 -1106 -5 -17 8 -18 179 -18 l184 0
24 110 23 110 157 0 156 0 23 -110 23 -110 184 0 c116 0 183 4 183 10 0 6 -40
180 -89 388 -50 207 -106 449 -126 537 -20 88 -38 168 -41 178 -5 16 -29 17
-315 17 -170 0 -309 -3 -309 -6z m333 -198 c6 -64 54 -342 83 -483 l7 -33
-112 0 c-61 0 -111 3 -111 8 0 4 12 68 25 142 31 165 65 385 65 423 0 22 4 28
18 25 14 -3 19 -19 25 -82z"/>
<path d="M2842 1369 c-176 -27 -295 -114 -351 -258 -53 -132 -50 -358 5 -496
71 -177 248 -266 494 -250 160 11 241 38 316 107 25 23 57 64 70 90 27 53 54
155 54 206 l0 32 -169 0 -168 0 -6 -81 c-4 -45 -9 -85 -13 -88 -3 -3 -43 -6
-89 -6 -79 0 -85 2 -114 29 -53 51 -66 110 -64 285 1 85 6 158 11 163 5 5 38
14 74 20 57 10 69 9 104 -8 44 -22 80 -77 89 -139 l7 -40 166 14 c92 7 169 15
171 17 7 6 -20 137 -40 188 -36 99 -121 172 -231 202 -69 18 -236 25 -316 13z"/>
<path d="M5074 1370 c-183 -27 -316 -132 -365 -289 -24 -78 -24 -108 -1 -115
33 -9 302 -40 307 -35 2 3 10 41 15 85 7 51 17 83 28 92 8 6 41 12 71 12 105
0 155 -59 168 -196 l6 -66 -99 7 c-105 7 -237 -5 -320 -30 -72 -21 -154 -74
-186 -120 -73 -103 -33 -256 82 -315 51 -26 161 -44 223 -36 115 15 235 110
275 219 22 58 55 80 47 30 -10 -55 -25 -185 -25 -209 l0 -24 175 0 175 0 0
278 c0 344 -8 422 -56 519 -56 116 -147 171 -316 193 -91 11 -128 11 -204 0z
m226 -624 c0 -49 -3 -57 -32 -82 -76 -64 -171 -80 -233 -40 -70 46 -20 140 88
166 18 5 65 8 105 9 l72 1 0 -54z"/>
<path d="M6404 1367 c-96 -25 -175 -94 -221 -193 -44 -96 -52 -68 -29 94 l13
92 -179 0 -178 0 0 -490 0 -490 178 0 177 0 -3 339 -3 339 31 26 c42 35 102
50 144 36 40 -13 59 -33 83 -85 15 -35 18 -79 21 -347 l4 -308 174 0 174 0 0
258 c-1 429 -16 554 -77 644 -51 76 -193 114 -309 85z"/>
<path d="M7230 1369 c-132 -19 -229 -79 -278 -173 -23 -45 -26 -62 -26 -146 0
-77 5 -105 24 -148 27 -62 95 -127 151 -144 22 -6 39 -15 39 -19 0 -5 -12 -33
-27 -64 l-27 -55 24 -24 25 -24 135 15 c185 19 253 15 287 -19 30 -31 44 -117
23 -143 -20 -24 -172 -21 -226 6 -40 19 -97 72 -106 99 -2 8 -53 0 -169 -26
l-167 -37 8 -27 c37 -128 149 -222 320 -267 97 -25 329 -22 432 5 198 53 298
153 298 296 -1 148 -96 226 -274 226 -39 0 -168 -11 -286 -24 -118 -14 -218
-22 -222 -20 -4 3 0 19 8 37 l15 32 112 1 c132 0 226 24 303 77 58 39 110 120
120 183 3 24 11 44 18 44 6 0 63 -9 126 -20 63 -11 116 -20 118 -20 1 0 2 86
2 190 l0 190 -36 0 c-133 0 -222 -97 -243 -263 -8 -70 -27 -71 -35 -1 -17 148
-110 237 -276 263 -73 12 -110 12 -190 0z m172 -218 c31 -28 33 -34 36 -109 5
-110 -2 -122 -79 -122 -111 0 -154 45 -153 162 2 90 10 98 95 98 62 0 72 -3
101 -29z"/>
<path d="M8485 1371 c-124 -21 -193 -50 -261 -113 -92 -85 -134 -207 -134
-392 1 -278 102 -432 320 -487 88 -22 281 -17 370 10 83 26 109 40 163 90 64
59 117 189 117 283 l0 38 -164 0 c-187 0 -175 6 -176 -95 0 -73 -7 -79 -92
-83 -60 -2 -79 1 -105 17 -42 26 -74 91 -80 162 l-6 57 44 6 c24 3 145 15 269
26 124 11 245 23 269 26 l44 6 -6 71 c-10 131 -67 248 -150 308 -22 16 -70 38
-105 49 -74 23 -238 34 -317 21z m139 -255 c40 -17 72 -56 88 -108 15 -51 11
-54 -110 -62 -54 -4 -112 -9 -129 -13 l-33 -5 0 68 c0 102 4 111 58 122 68 14
89 14 126 -2z"/>
<path d="M2027 1360 c-98 -25 -180 -95 -218 -185 -12 -30 -29 -55 -36 -55 -16
0 -17 -6 7 124 11 60 20 111 20 113 0 2 -80 3 -177 3 l-178 0 0 -490 0 -490
177 0 177 0 -1 352 -1 351 27 24 c31 27 44 28 90 9 61 -26 95 -104 111 -259
l7 -58 36 5 c20 3 89 10 152 16 179 17 163 5 155 113 -13 175 -52 313 -103
370 -45 50 -163 77 -245 57z"/>
</g>
</svg>
